<svg width="50" height="44" viewBox="0 0 50 44" fill="none" xmlns="http://www.w3.org/2000/svg">
<path d="M0 0H50V28C50 36.8366 42.8366 44 34 44H16C7.16344 44 0 36.8366 0 28V0Z" fill="#F63D7E"/>
<path d="M32.8409 12.7418C32.8577 11.9449 32.8274 11.4413 32.8274 11.4413L25.0395 11.4354H25H24.9605L17.1718 11.4413C17.1718 11.4413 17.1423 11.9449 17.1591 12.7418H12V13.5926C12 13.7868 12.0328 18.3675 14.8599 20.8769C16.0394 21.9235 17.5105 22.4498 19.2448 22.4506C19.5071 22.4506 19.777 22.433 20.0502 22.4094C21.0354 23.7587 22.1737 24.7036 23.454 25.1744V28.9111H19.6954V31.2515H18.4538V32.5638H24.9605H25.0395H31.5462V31.2524H30.3037V28.912H26.5451V25.1752C27.8246 24.7044 28.9637 23.7595 29.949 22.4103C30.2239 22.4338 30.4937 22.4506 30.756 22.4506C32.4895 22.4489 33.9606 21.9235 35.1401 20.8761C37.9672 18.3667 38 13.7859 38 13.5917V12.7418H32.8409ZM15.9948 19.6083C14.3799 18.1792 13.9024 15.7329 13.7612 14.4433H17.2567C17.4046 16.0498 17.7527 18.0514 18.5555 19.8109C18.7026 20.1338 18.8573 20.4398 19.0153 20.739C17.8107 20.6928 16.7968 20.317 15.9948 19.6083ZM34.0052 19.6083C33.204 20.3179 32.1893 20.6928 30.9855 20.739C31.1436 20.4406 31.2982 20.1338 31.4454 19.8109C32.2482 18.0514 32.5962 16.0498 32.7433 14.4433H36.2388C36.0976 15.732 35.6209 18.1784 34.0052 19.6083Z" fill="white"/>
</svg>
