<svg width="44" height="48" viewBox="0 0 44 48" fill="none" xmlns="http://www.w3.org/2000/svg">
<g clip-path="url(#clip0_301_243)">
<path d="M32.2295 16.991V13.7172L18.8071 0V3.27379L29.9871 14.6993V17.9731L39.4692 27.6636H36.2658L39.4372 30.9046L29.9871 40.5623L27.7447 39.5802V37.1248L21.0174 34.0147V31.7231L18.775 29.4314V19.61L16.5326 17.3184V7.52973L9.80543 0.654759V3.89582L14.2902 8.47913V15.0267L0.835815 1.27678V4.55057L16.5326 20.5922V27.1397L0.835815 11.0982V14.372L18.775 32.7052V39.2528L0.835815 20.9195V24.1933L12.0478 35.6516V42.1992L0.835815 30.7409V34.0147L14.2902 47.7647V37.9433L21.0174 44.8182V36.3064L25.5023 38.4343V40.726L30.6278 43.1813L42.6406 30.9046V27.6308L32.2295 16.991ZM21.1776 15.5178L26.9438 21.4106H30.1472L27.7447 18.9553V15.5178H21.1776Z" fill="white"/>
</g>
<defs>
<clipPath id="clip0_301_243">
<rect width="42.7697" height="48" fill="white" transform="translate(0.234985)"/>
</clipPath>
</defs>
</svg>
