<svg width="120" height="22" viewBox="0 0 120 22" fill="none" xmlns="http://www.w3.org/2000/svg">
<path d="M0.674927 17.0527V15.7208L2.39622 15.4339V3.26189L0.674927 2.975V1.62256H2.39622H5.18308L10.1625 13.3438H10.224L15.0396 1.62256H19.6912V2.975L17.9699 3.26189V15.4339L19.6912 15.7208V17.0527H14.1379V15.7208L15.9617 15.4339V10.9462V4.47089L15.9002 4.4504L10.8798 16.4995H9.48632L4.30195 4.47089L4.24047 4.49138L4.32244 10.9462V15.4339L6.18717 15.7208V17.0527H0.674927Z" fill="white"/>
<path d="M22.0681 17.0528V15.7209L23.7894 15.434V7.23734L22.0681 6.95046V5.55703H25.8796V15.4135L27.6009 15.7004V17.0323H22.0681V17.0528ZM23.7074 2.72919V0.495605H25.9001V2.72919H23.7074Z" fill="white"/>
<path d="M34.7525 21.6839C34.1992 21.6839 33.605 21.6019 32.9492 21.4584C32.314 21.315 31.7402 21.0896 31.2484 20.8437L31.7812 19.2249C32.1706 19.4298 32.6214 19.5937 33.1542 19.7372C33.6869 19.8806 34.1992 19.9421 34.7115 19.9421C35.6541 19.9421 36.3304 19.6757 36.7607 19.1634C37.191 18.6306 37.4164 17.8929 37.4164 16.9298V15.8028C37.0476 16.2741 36.5967 16.6429 36.064 16.8888C35.5312 17.1347 34.9369 17.2577 34.2607 17.2577C33.3181 17.2577 32.5189 17.0323 31.8427 16.561C31.1665 16.0896 30.6337 15.4544 30.2853 14.6142C29.9165 13.7741 29.7321 12.811 29.7321 11.7249V11.4995C29.7321 10.27 29.9165 9.18397 30.2853 8.26184C30.6542 7.33972 31.1665 6.62252 31.8427 6.11022C32.5189 5.59793 33.3386 5.33154 34.2812 5.33154C34.9984 5.33154 35.6336 5.47499 36.1869 5.76187C36.7402 6.04875 37.191 6.45858 37.5599 6.99137L37.7443 5.55695H39.5066V16.8888C39.5066 17.8724 39.3221 18.7331 38.9533 19.4503C38.5844 20.1675 38.0312 20.7207 37.3344 21.1101C36.6377 21.4789 35.7771 21.6839 34.7525 21.6839ZM34.814 15.5774C35.4492 15.5774 35.9615 15.4339 36.3918 15.147C36.8222 14.8601 37.1705 14.4503 37.4369 13.938V8.65119C37.1705 8.15939 36.8222 7.77005 36.3918 7.48316C35.9615 7.19628 35.4492 7.05284 34.8345 7.05284C34.1787 7.05284 33.6255 7.23727 33.1746 7.62661C32.7238 8.01595 32.396 8.52824 32.191 9.20446C31.9656 9.88068 31.8632 10.6389 31.8632 11.52V11.7454C31.8632 12.8929 32.1091 13.8151 32.6009 14.5323C33.0722 15.229 33.8099 15.5774 34.814 15.5774ZM39.2197 7.27825L38.4 5.57744H40.9615V6.9094L39.2197 7.27825Z" fill="white"/>
<path d="M42.3754 17.0528V15.7209L44.0967 15.434V2.15544L42.3754 1.86856V0.516113H46.1868V7.11441C46.5761 6.56114 47.0679 6.13082 47.6417 5.82344C48.2155 5.51607 48.8507 5.37263 49.5474 5.37263C50.7769 5.37263 51.74 5.74148 52.4163 6.47917C53.0925 7.21687 53.4408 8.34391 53.4408 9.88078V15.434L55.1621 15.7209V17.0528H49.6089V15.7209L51.3302 15.434V9.86029C51.3302 8.91768 51.1253 8.22096 50.7154 7.74965C50.3056 7.29884 49.7114 7.07343 48.8917 7.07343C48.3179 7.07343 47.8056 7.21687 47.3343 7.48326C46.863 7.74965 46.4737 8.1185 46.1663 8.58981V15.434L47.8876 15.7209V17.0528H42.3754Z" fill="white"/>
<path d="M60.8793 17.2169C60.0391 17.2169 59.3629 16.971 58.8506 16.4587C58.3588 15.9669 58.0924 15.1677 58.0924 14.0612V7.09401H56.2687V5.55714H58.0924V2.79077H60.1826V5.55714H62.6825V7.1145H60.1826V14.0817C60.1826 14.6349 60.285 15.0448 60.5104 15.3111C60.7358 15.5775 61.0227 15.7005 61.3916 15.7005C61.6375 15.7005 61.9243 15.68 62.2112 15.639C62.5186 15.598 62.744 15.557 62.9284 15.5161L63.2153 16.889C62.9079 16.971 62.5391 17.0529 62.0883 17.1349C61.6784 17.1964 61.2686 17.2169 60.8793 17.2169Z" fill="white"/>
<path d="M67.7235 21.684C67.5596 21.684 67.3547 21.6635 67.0883 21.6225C66.8219 21.5816 66.617 21.5406 66.4735 21.5201L66.6785 19.8808C66.8014 19.9013 66.9654 19.9013 67.1703 19.9217C67.3752 19.9422 67.5186 19.9422 67.6006 19.9422C68.0514 19.9422 68.3998 19.7783 68.6866 19.4299C68.9735 19.0816 69.2194 18.6308 69.4653 18.0365L69.9571 16.8275L65.8998 7.094L64.6703 6.93007V5.55713H69.4858V6.90958L68.0924 7.11449L70.326 12.8521L70.8588 14.348H70.9202L73.5636 7.11449L72.1087 6.90958V5.55713H76.8218V6.90958L75.6333 7.07351L71.1046 18.7947C70.8997 19.348 70.6333 19.8398 70.326 20.2701C70.0186 20.7004 69.6498 21.0488 69.2194 21.2947C68.8506 21.5611 68.3383 21.684 67.7235 21.684Z" fill="white"/>
<path d="M86.8831 17.2577C85.3258 17.2577 84.0348 16.9093 83.0102 16.2331C81.9652 15.5569 81.1865 14.6143 80.6742 13.4463C80.1619 12.2577 79.8955 10.9258 79.8955 9.42989V9.20449C79.8955 7.68811 80.1619 6.33566 80.7152 5.16764C81.2684 3.99962 82.0471 3.057 83.0512 2.38078C84.0758 1.70456 85.2848 1.3562 86.6987 1.3562C87.7028 1.3562 88.6044 1.52013 89.4446 1.82751C90.2642 2.13488 90.9609 2.54472 91.4937 3.01602V6.35615H89.8339L89.6085 3.91765C89.3831 3.73323 89.1167 3.58979 88.8298 3.46684C88.5429 3.34389 88.2151 3.26192 87.8462 3.20045C87.4979 3.13897 87.1085 3.09799 86.6782 3.09799C85.6741 3.09799 84.8135 3.36438 84.1168 3.87667C83.4201 4.38896 82.8873 5.10617 82.5184 6.02829C82.1496 6.95041 81.9857 7.99548 81.9857 9.184V9.42989C81.9857 10.7209 82.1701 11.8274 82.5594 12.7495C82.9488 13.6717 83.502 14.3684 84.2397 14.8397C84.9774 15.311 85.8791 15.5569 86.9446 15.5569C87.4364 15.5569 87.9282 15.4954 88.3995 15.3725C88.8708 15.2495 89.2602 15.1061 89.5675 14.9012L89.7929 12.7495H91.4323V16.1102C90.8585 16.479 90.1618 16.7454 89.3626 16.9503C88.5634 17.1757 87.7438 17.2577 86.8831 17.2577Z" fill="white"/>
<path d="M97.8871 17.2577C96.6986 17.2577 95.7765 16.9708 95.1617 16.3765C94.547 15.8028 94.2191 14.9626 94.2191 13.9175C94.2191 13.1798 94.424 12.5446 94.8134 12.0118C95.2027 11.479 95.797 11.0487 96.5552 10.7413C97.3133 10.434 98.215 10.2905 99.2805 10.2905H101.33V9.16349C101.33 8.46678 101.125 7.93399 100.694 7.54465C100.264 7.15531 99.6904 6.97089 98.9117 6.97089C98.4404 6.97089 98.0101 7.03236 97.6617 7.15531C97.3134 7.27826 96.9855 7.44219 96.6986 7.64711L96.4732 9.24546H94.8544V6.62253C95.3666 6.2127 95.9814 5.88483 96.6576 5.67992C97.3338 5.45451 98.1125 5.35205 98.9322 5.35205C100.326 5.35205 101.412 5.67992 102.211 6.35614C103.01 7.01187 103.399 7.97498 103.399 9.20447V14.7372C103.399 14.8806 103.399 15.0241 103.399 15.1675C103.399 15.311 103.42 15.4544 103.42 15.5979L104.526 15.7208V17.0528H101.514C101.453 16.7454 101.391 16.4585 101.371 16.2126C101.33 15.9667 101.309 15.7208 101.289 15.4749C100.879 15.9872 100.387 16.4175 99.7723 16.7659C99.2191 17.0937 98.5633 17.2577 97.8871 17.2577ZM98.1945 15.5159C98.8912 15.5159 99.5264 15.352 100.1 15.0241C100.674 14.6962 101.084 14.2864 101.33 13.8151V11.7454H99.1986C98.2355 11.7454 97.5183 11.9708 97.0265 12.4421C96.5552 12.893 96.3093 13.4053 96.3093 13.979C96.3093 14.4913 96.4732 14.8602 96.7806 15.1266C97.0879 15.3929 97.5592 15.5159 98.1945 15.5159Z" fill="white"/>
<path d="M106.719 17.0528V15.7209L108.44 15.434V2.15544L106.719 1.86856V0.516113H110.53V15.434L112.252 15.7209V17.0528H106.719Z" fill="white"/>
<path d="M114.301 17.0528V15.7209L116.022 15.434V2.15544L114.301 1.86856V0.516113H118.112V15.434L119.834 15.7209V17.0528H114.301Z" fill="white"/>
</svg>
