<svg width="48" height="32" viewBox="0 0 48 32" fill="none" xmlns="http://www.w3.org/2000/svg">
<path d="M39.324 14.312L40.074 17.744H37.386L38.676 14.422L39.106 13.288L39.324 14.312ZM48 4V28C48 30.208 46.208 32 44 32H4C1.792 32 0 30.208 0 28V4C0 1.792 1.792 0 4 0H44C46.208 0 48 1.792 48 4V4ZM13.708 21.942L18.806 10.084H15.376L12.206 18.186L11.868 16.54L10.732 11.08C10.536 10.326 9.966 10.102 9.264 10.076H4.042L4 10.322C5.27 10.63 6.406 11.074 7.402 11.624L10.282 21.944L13.708 21.942V21.942ZM23.354 10.074H20.116L18.092 21.956H21.33L23.354 10.074ZM32.604 18.072C32.616 16.72 31.754 15.692 29.886 14.844C28.754 14.294 28.06 13.928 28.068 13.372C28.068 12.878 28.654 12.35 29.922 12.35C30.982 12.334 31.748 12.564 32.346 12.806L32.636 12.942L33.074 10.368C32.432 10.126 31.426 9.868 30.172 9.868C26.972 9.868 24.718 11.48 24.698 13.79C24.68 15.498 26.308 16.45 27.536 17.018C28.796 17.6 29.22 17.972 29.214 18.492C29.206 19.288 28.208 19.652 27.276 19.652C25.98 19.652 25.292 19.472 24.228 19.028L23.81 18.838L23.356 21.498C24.112 21.83 25.512 22.118 26.964 22.132C30.368 22.132 32.578 20.538 32.604 18.072ZM44 21.96L41.378 10.086H38.876C38.1 10.086 37.52 10.298 37.18 11.072L32.37 21.96H35.77L36.452 20.174L40.6 20.18L40.994 21.96H44V21.96Z" fill="white"/>
</svg>
