<svg width="48" height="32" viewBox="0 0 48 32" fill="none" xmlns="http://www.w3.org/2000/svg">
<path d="M30.93 24.888C30.93 25.274 30.674 25.566 30.292 25.566C29.894 25.566 29.65 25.26 29.65 24.888C29.65 24.516 29.894 24.21 30.292 24.21C30.672 24.212 30.93 24.504 30.93 24.888ZM17.302 24.212C16.904 24.212 16.66 24.518 16.66 24.89C16.66 25.262 16.904 25.568 17.302 25.568C17.682 25.568 17.94 25.276 17.94 24.89C17.94 24.504 17.684 24.212 17.302 24.212ZM24.084 24.19C23.756 24.19 23.57 24.398 23.522 24.704H24.62C24.572 24.376 24.382 24.19 24.084 24.19ZM34.564 24.212C34.166 24.212 33.922 24.518 33.922 24.89C33.922 25.262 34.166 25.568 34.564 25.568C34.944 25.568 35.202 25.276 35.202 24.89C35.202 24.504 34.944 24.212 34.564 24.212ZM48 4V28C48 30.208 46.208 32 44 32H4C1.792 32 0 30.208 0 28V4C0 1.792 1.792 0 4 0H44C46.208 0 48 1.792 48 4ZM11.088 13.97C11.088 18.372 14.656 21.94 19.058 21.94C20.596 21.94 22.032 21.502 23.25 20.748C21.316 19.122 20.086 16.688 20.086 13.97C20.086 11.252 21.318 8.818 23.25 7.192C22.032 6.438 20.598 6 19.058 6C14.658 6 11.088 9.568 11.088 13.97ZM15.78 24.618C15.78 24.118 15.462 23.782 14.948 23.776C14.678 23.772 14.4 23.856 14.204 24.152C14.058 23.918 13.828 23.776 13.504 23.776C13.278 23.776 13.056 23.842 12.884 24.09V23.828H12.424V25.944H12.888V24.77C12.888 24.402 13.092 24.208 13.406 24.208C13.712 24.208 13.866 24.408 13.866 24.766V25.944H14.33V24.77C14.33 24.402 14.542 24.208 14.848 24.208C15.162 24.208 15.312 24.408 15.312 24.766V25.944H15.78V24.618ZM18.374 23.83H17.914V24.086C17.768 23.896 17.546 23.776 17.246 23.776C16.652 23.776 16.188 24.24 16.188 24.888C16.188 25.536 16.652 26 17.246 26C17.548 26 17.768 25.88 17.914 25.69V25.946H18.374V23.83ZM20.702 25.31C20.702 24.938 20.424 24.744 19.962 24.676L19.746 24.644C19.546 24.618 19.388 24.578 19.388 24.436C19.388 24.28 19.538 24.188 19.79 24.188C20.06 24.188 20.322 24.29 20.45 24.37L20.65 23.998C20.428 23.852 20.124 23.776 19.786 23.776C19.25 23.776 18.906 24.032 18.906 24.454C18.906 24.8 19.162 25.012 19.636 25.078L19.852 25.11C20.104 25.146 20.224 25.212 20.224 25.332C20.224 25.496 20.056 25.588 19.742 25.588C19.424 25.588 19.194 25.486 19.038 25.366L18.822 25.724C19.074 25.912 19.392 26 19.738 26C20.348 26 20.702 25.712 20.702 25.31ZM22.752 25.836L22.62 25.442C22.482 25.522 22.332 25.562 22.212 25.562C21.982 25.562 21.906 25.42 21.906 25.208V24.252H22.658V23.832H21.906V23.19H21.442V23.832H21.012V24.252H21.442V25.218C21.442 25.71 21.632 26.002 22.176 26.002C22.376 26 22.606 25.938 22.752 25.836ZM25.098 24.888C25.094 24.228 24.686 23.776 24.092 23.776C23.472 23.776 23.038 24.228 23.038 24.888C23.038 25.56 23.49 26 24.122 26C24.44 26 24.732 25.92 24.99 25.704L24.764 25.364C24.586 25.506 24.362 25.586 24.148 25.586C23.852 25.586 23.582 25.448 23.514 25.068H25.086L25.098 24.888ZM26.914 23.836L26.586 23.778C26.32 23.778 26.148 23.902 26.028 24.088V23.832H25.572V25.948H26.032V24.76C26.032 24.41 26.182 24.216 26.484 24.216L26.772 24.27L26.914 23.836ZM27.53 24.888C27.53 24.48 27.8 24.216 28.168 24.21C28.368 24.21 28.548 24.276 28.722 24.4L28.944 24.028C28.714 23.846 28.502 23.776 28.182 23.776C27.5 23.776 27.054 24.246 27.054 24.888C27.054 25.53 27.498 26 28.18 26C28.498 26 28.712 25.93 28.942 25.748L28.72 25.376C28.548 25.5 28.366 25.566 28.166 25.566C27.8 25.562 27.53 25.296 27.53 24.888ZM31.362 23.83H30.902V24.086C30.756 23.896 30.534 23.776 30.234 23.776C29.64 23.776 29.176 24.24 29.176 24.888C29.176 25.534 29.64 26 30.234 26C30.536 26 30.756 25.88 30.902 25.69V25.946H31.362V23.83ZM33.31 23.836L32.982 23.778C32.716 23.778 32.544 23.902 32.424 24.088V23.832H31.968V25.948H32.428V24.76C32.428 24.41 32.578 24.216 32.88 24.216L33.168 24.27L33.31 23.836ZM35.634 22.98H35.174V24.086C35.028 23.896 34.806 23.776 34.506 23.776C33.912 23.776 33.448 24.24 33.448 24.888C33.448 25.534 33.912 26 34.506 26C34.808 26 35.028 25.88 35.174 25.69V25.946H35.634V22.98ZM36.912 13.97C36.912 9.568 33.342 6 28.942 6C24.542 6 20.972 9.568 20.972 13.97C20.972 18.372 24.54 21.94 28.942 21.94C33.344 21.94 36.912 18.372 36.912 13.97Z" fill="white"/>
</svg>
