<svg width="48" height="32" viewBox="0 0 48 32" fill="none" xmlns="http://www.w3.org/2000/svg">
<path d="M41.192 14.37H40.844V12.52H41.212C41.954 12.52 42.358 12.832 42.358 13.426C42.358 14.04 41.954 14.37 41.192 14.37ZM7.512 12.592H7.192V16.634H7.512C8.282 16.634 8.77 16.486 9.144 16.148C9.556 15.78 9.804 15.194 9.804 14.608C9.804 14.022 9.556 13.454 9.144 13.086C8.75 12.73 8.282 12.592 7.512 12.592ZM48 4V28C48 30.208 46.208 32 44 32H4C1.792 32 0 30.208 0 28V4C0 1.792 1.792 0 4 0H44C46.208 0 48 1.792 48 4ZM39.654 17.67H40.846V15.214H41L42.65 17.67H44.116L42.192 15.094C43.09 14.912 43.584 14.298 43.584 13.36C43.584 12.216 42.796 11.556 41.42 11.556H39.652V17.67H39.654ZM35.482 17.67H38.864V16.636H36.674V14.986H38.784V13.95H36.674V12.594H38.864V11.556H35.482V17.67ZM29.066 11.556L31.66 17.826H32.302L34.942 11.556H33.65L31.998 15.662L30.368 11.556H29.066ZM22.878 14.646C22.878 16.478 24.362 17.964 26.196 17.964C28.028 17.964 29.514 16.478 29.514 14.646C29.514 12.814 28.028 11.328 26.196 11.328C24.364 11.328 22.878 12.814 22.878 14.646ZM17.822 14.618C17.822 16.414 19.232 17.808 21.048 17.808C21.562 17.808 22 17.708 22.542 17.452V16.048C22.066 16.526 21.644 16.718 21.102 16.718C19.902 16.718 19.048 15.848 19.048 14.61C19.048 13.436 19.928 12.51 21.046 12.51C21.614 12.51 22.046 12.714 22.54 13.198V11.794C22.016 11.528 21.586 11.418 21.074 11.418C19.272 11.418 17.822 12.84 17.822 14.618ZM11.032 14.618C11.032 12.814 9.684 11.558 7.75 11.558H6V17.67H7.742C8.668 17.67 9.336 17.452 9.924 16.964C10.62 16.386 11.032 15.516 11.032 14.618ZM12.772 11.556H11.58V17.668H12.772V11.556ZM16.22 15.864C16.22 16.36 15.826 16.726 15.294 16.726C14.726 16.726 14.268 16.442 13.992 15.91L13.222 16.652C13.772 17.458 14.432 17.816 15.338 17.816C16.578 17.816 17.446 16.992 17.446 15.808C17.446 14.836 17.044 14.398 15.688 13.902C14.972 13.638 14.762 13.462 14.762 13.132C14.762 12.746 15.136 12.454 15.65 12.454C16.008 12.454 16.3 12.6 16.612 12.948L17.236 12.132C16.724 11.684 16.11 11.456 15.44 11.456C14.358 11.456 13.534 12.208 13.534 13.208C13.534 14.05 13.918 14.482 15.038 14.884C15.504 15.048 15.742 15.158 15.862 15.232C16.1 15.388 16.22 15.608 16.22 15.864ZM46 18.298C46 18.298 34.538 26.386 13.548 30.006H43.5C44.88 30.006 46 28.886 46 27.506V18.298Z" fill="white"/>
</svg>
