<svg width="48" height="32" viewBox="0 0 48 32" fill="none" xmlns="http://www.w3.org/2000/svg">
<path d="M37.06 12.678L35.042 14.86L33.086 12.678H26.692V19.336H32.986L35.018 17.13L36.974 19.336H39.018L36.046 16.026L39.018 12.678H37.06ZM32.182 17.956H28.27V16.626H31.756V15.272H28.27V14.056H32.258L34 16L32.182 17.956ZM14.752 12.452L14.732 12.412H14.752V12.452ZM20.746 17.192L18.664 12.678H16.068V18.972L13.372 12.678H11.004L8.158 19.336H9.888L10.502 17.844H13.812L14.426 19.336H17.662V14.12L19.97 19.336H21.374L23.668 14.12L23.68 19.336H25.248V12.678H22.664L20.746 17.192ZM11.066 16.464L12.156 13.806L13.246 16.464H11.066ZM44 0H4C1.792 0 0 1.792 0 4V28C0 30.208 1.792 32 4 32H44C46.208 32 48 30.208 48 28V4C48 1.792 46.208 0 44 0ZM42 20.64H36.282L35.016 19.198L33.662 20.64H13.448L12.846 19.16H11.466L10.864 20.64H6L10.062 11.36H19.604L20.67 13.756L21.71 11.36H33.822L35.05 12.776L36.366 11.36H42L37.924 16.024L42 20.64Z" fill="white"/>
</svg>
