<svg width="20" height="21" viewBox="0 0 20 21" fill="none" xmlns="http://www.w3.org/2000/svg">
<path d="M10 1.9696L11.7696 7.4159L11.8819 7.76139H12.2451H17.9717L13.3388 11.1274L13.0449 11.3409L13.1572 11.6864L14.9268 17.1327L10.2939 13.7667L10 13.5532L9.70611 13.7667L5.0732 17.1327L6.84282 11.6864L6.95507 11.3409L6.66118 11.1274L2.02828 7.76139H7.75486H8.11813L8.23039 7.4159L10 1.9696Z" stroke="#FA93B7"/>
<mask id="mask0_2_374" style="mask-type:alpha" maskUnits="userSpaceOnUse" x="0" y="0" width="140" height="19">
<path d="M10 0.351562L12.2451 7.26139H19.5106L13.6327 11.5319L15.8779 18.4417L10 14.1712L4.12215 18.4417L6.36729 11.5319L0.489435 7.26139H7.75486L10 0.351562Z" fill="#C4C4C4"/>
</mask>
<g mask="url(#mask0_2_374)">
<rect y="0.351562" width="130" height="20" fill="#F63D7E"/>
</g>
</svg>
