<?xml version="1.0" encoding="utf-8"?><svg xmlns="http://www.w3.org/2000/svg" xmlns:xlink="http://www.w3.org/1999/xlink"><symbol viewBox="0 0 16 31" id="arrow" xmlns="http://www.w3.org/2000/svg"><path fill-rule="evenodd" clip-rule="evenodd" d="M.929 6.657L7.293.293a1 1 0 0 1 1.414 0l6.364 6.364a1 1 0 0 1-1.414 1.414L9 3.414V31H7V3.414L2.343 8.071A1 1 0 0 1 .929 6.657z"/></symbol><symbol viewBox="0 0 26 26" id="done-ic" xmlns="http://www.w3.org/2000/svg"><path d="M5.293 11.707l6 6a1 1 0 0 0 1.414 0l9-9a1 1 0 0 0-1.414-1.414L12 15.586l-5.293-5.293a1 1 0 1 0-1.414 1.414z"/></symbol><symbol viewBox="0 0 20 21" id="star-ic" xmlns="http://www.w3.org/2000/svg"><path d="M10 1.97l1.77 5.446.112.345h6.09l-4.633 3.366-.294.214.112.345 1.77 5.447-4.633-3.366-.294-.214-.294.214-4.633 3.366 1.77-5.447.112-.345-.294-.214-4.633-3.366h6.09l.112-.345L10 1.97z"/><mask id="ca" maskUnits="userSpaceOnUse" x="0" y="0" width="140" height="19"><path d="M10 .352l2.245 6.91h7.266l-5.878 4.27 2.245 6.91L10 14.172l-5.878 4.27 2.245-6.91L.49 7.262h7.266L10 .351z"/></mask><g mask="url(#ca)"><path d="M0 .352h130v20H0z"/></g></symbol><symbol viewBox="0 0 20 21" id="star__50-ic" xmlns="http://www.w3.org/2000/svg"><path d="M10 1.97l1.77 5.446.112.345h6.09l-4.633 3.366-.294.214.112.345 1.77 5.447-4.633-3.366-.294-.214-.294.214-4.633 3.366 1.77-5.447.112-.345-.294-.214-4.633-3.366h6.09l.112-.345L10 1.97z"/><mask id="da" maskUnits="userSpaceOnUse" x="0" y="0" width="140" height="19"><path d="M10 .352l2.245 6.91h7.266l-5.878 4.27 2.245 6.91L10 14.172l-5.878 4.27 2.245-6.91L.49 7.262h7.266L10 .351z"/></mask><g mask="url(#da)"><path d="M-120 0H10v20h-130z"/></g></symbol><symbol viewBox="0 0 20 21" id="star__empty-ic" xmlns="http://www.w3.org/2000/svg"><path d="M10 1.97l1.77 5.446.112.345h6.09l-4.633 3.366-.294.214.112.345 1.77 5.447-4.633-3.366-.294-.214-.294.214-4.633 3.366 1.77-5.447.112-.345-.294-.214-4.633-3.366h6.09l.112-.345L10 1.97z"/></symbol></svg>